<svg width="34.000000" height="34.000000" viewBox="0 0 34 34" fill="none" xmlns="http://www.w3.org/2000/svg" xmlns:xlink="http://www.w3.org/1999/xlink">
	<desc>
			Created with Pixso.
	</desc>
	<defs>
		<clipPath id="clip28_464">
			<rect id="Brands / facebook" width="34.000000" height="34.000000" fill="white" fill-opacity="0"/>
		</clipPath>
	</defs>
	<rect id="Brands / facebook" width="34.000000" height="34.000000" fill="#FFFFFF" fill-opacity="0"/>
	<g clip-path="url(#clip28_464)">
		<path id="Vector" d="M29.6 2.83L4.39 2.83C3.97 2.83 3.58 2.99 3.28 3.29C2.99 3.58 2.83 3.97 2.83 4.39L2.83 29.6C2.83 29.81 2.87 30.01 2.95 30.2C3.03 30.39 3.14 30.56 3.28 30.71C3.43 30.85 3.6 30.96 3.79 31.04C3.98 31.12 4.18 31.16 4.39 31.16L17.96 31.16L17.96 20.18L14.28 20.18L14.28 15.93L17.96 15.93L17.96 12.75C17.88 12 17.97 11.24 18.22 10.53C18.46 9.82 18.86 9.17 19.39 8.63C19.91 8.09 20.55 7.67 21.25 7.4C21.95 7.14 22.7 7.02 23.46 7.08C24.56 7.07 25.66 7.13 26.76 7.25L26.76 11.07L24.5 11.07C22.72 11.07 22.38 11.92 22.38 13.16L22.38 15.89L26.63 15.89L26.08 20.14L22.38 20.14L22.38 31.16L29.6 31.16C29.81 31.16 30.01 31.12 30.2 31.04C30.39 30.96 30.56 30.85 30.71 30.71C30.85 30.56 30.96 30.39 31.04 30.2C31.12 30.01 31.16 29.81 31.16 29.6L31.16 4.39C31.16 4.18 31.12 3.98 31.04 3.79C30.96 3.6 30.85 3.43 30.71 3.29C30.56 3.14 30.39 3.03 30.2 2.95C30.01 2.87 29.81 2.83 29.6 2.83Z" fill="#3460A9" fill-opacity="1.000000" fill-rule="nonzero"/>
	</g>
</svg>
