<svg width="34.000000" height="34.000000" viewBox="0 0 34 34" fill="none" xmlns="http://www.w3.org/2000/svg" xmlns:xlink="http://www.w3.org/1999/xlink">
	<desc>
			Created with Pixso.
	</desc>
	<defs>
		<clipPath id="clip28_462">
			<rect id="Brands / instagram" width="34.000000" height="34.000000" transform="translate(-0.750000 0.000000)" fill="white" fill-opacity="0"/>
		</clipPath>
	</defs>
	<rect id="Brands / instagram" width="34.000000" height="34.000000" transform="translate(-0.750000 0.000000)" fill="#FFFFFF" fill-opacity="0"/>
	<g clip-path="url(#clip28_462)">
		<path id="Vector" d="M16.25 13.48C15.55 13.48 14.87 13.69 14.29 14.07C13.72 14.46 13.27 15.01 13 15.65C12.73 16.29 12.66 17 12.8 17.68C12.93 18.36 13.27 18.99 13.76 19.48C14.25 19.97 14.88 20.31 15.56 20.44C16.24 20.58 16.95 20.51 17.59 20.24C18.23 19.98 18.78 19.52 19.17 18.95C19.55 18.37 19.76 17.69 19.76 17C19.76 16.53 19.67 16.08 19.49 15.65C19.31 15.22 19.06 14.84 18.73 14.51C18.4 14.18 18.02 13.93 17.59 13.75C17.16 13.57 16.71 13.48 16.25 13.48ZM30.31 10.01C30.31 8.92 30.1 7.83 29.72 6.81C29.43 6.06 28.99 5.38 28.43 4.81C27.86 4.25 27.18 3.81 26.43 3.52C25.41 3.14 24.32 2.93 23.23 2.93C21.4 2.83 20.86 2.83 16.25 2.83C11.63 2.83 11.09 2.83 9.26 2.93C8.17 2.93 7.08 3.14 6.06 3.52C5.31 3.81 4.63 4.25 4.06 4.81C3.5 5.38 3.06 6.06 2.77 6.81C2.39 7.83 2.18 8.92 2.18 10.01C2.08 11.84 2.08 12.38 2.08 17C2.08 21.61 2.08 22.15 2.18 23.98C2.19 25.08 2.39 26.16 2.77 27.2C3.06 27.94 3.5 28.62 4.06 29.18C4.63 29.75 5.31 30.19 6.06 30.47C7.08 30.85 8.17 31.06 9.26 31.06C11.09 31.16 11.63 31.16 16.25 31.16C20.86 31.16 21.4 31.16 23.23 31.06C24.32 31.06 25.41 30.85 26.43 30.47C27.18 30.19 27.86 29.75 28.43 29.18C28.99 28.62 29.43 27.94 29.72 27.2C30.1 26.17 30.3 25.08 30.31 23.98C30.41 22.15 30.41 21.61 30.41 17C30.41 12.38 30.41 11.84 30.31 10.01ZM26.71 21.34C26.67 22.22 26.48 23.08 26.16 23.89C25.89 24.57 25.48 25.19 24.96 25.71C24.44 26.23 23.82 26.64 23.14 26.91C22.32 27.21 21.46 27.38 20.58 27.41C19.46 27.41 19.16 27.41 16.25 27.41C13.33 27.41 13.03 27.41 11.91 27.41C11.03 27.38 10.17 27.21 9.35 26.91C8.64 26.65 8.01 26.23 7.49 25.69C6.98 25.19 6.58 24.57 6.33 23.89C6.02 23.07 5.86 22.21 5.85 21.33C5.85 20.21 5.85 19.91 5.85 17C5.85 14.08 5.85 13.78 5.85 12.66C5.86 11.78 6.02 10.92 6.33 10.1C6.59 9.39 7.01 8.76 7.55 8.24C8.06 7.73 8.67 7.33 9.35 7.08C10.17 6.78 11.03 6.61 11.91 6.58C13.03 6.58 13.33 6.58 16.25 6.58C19.16 6.58 19.46 6.58 20.58 6.58C21.46 6.61 22.32 6.78 23.14 7.08C23.85 7.34 24.48 7.76 25 8.3C25.51 8.81 25.91 9.42 26.16 10.1C26.46 10.92 26.63 11.78 26.66 12.66C26.66 13.78 26.66 14.08 26.66 17C26.66 19.91 26.76 20.21 26.71 21.33L26.71 21.34ZM24.45 10.8C24.28 10.35 24.01 9.93 23.67 9.59C23.32 9.24 22.91 8.98 22.45 8.81C21.82 8.59 21.16 8.48 20.5 8.5C19.39 8.5 19.08 8.5 16.25 8.5C13.41 8.5 13.1 8.5 12 8.5C11.33 8.5 10.66 8.63 10.04 8.86C9.59 9.02 9.18 9.28 8.83 9.61C8.49 9.94 8.22 10.35 8.04 10.79C7.84 11.42 7.74 12.08 7.75 12.75C7.75 13.85 7.75 14.16 7.75 17C7.75 19.83 7.75 20.14 7.75 21.25C7.76 21.91 7.88 22.57 8.11 23.2C8.28 23.66 8.55 24.07 8.89 24.42C9.24 24.76 9.65 25.03 10.11 25.2C10.72 25.42 11.35 25.54 12 25.57C13.1 25.57 13.41 25.57 16.25 25.57C19.08 25.57 19.39 25.57 20.5 25.57C21.16 25.56 21.83 25.43 22.45 25.2C22.91 25.03 23.32 24.76 23.67 24.42C24.01 24.07 24.28 23.66 24.45 23.2C24.68 22.58 24.81 21.91 24.82 21.25C24.82 20.14 24.82 19.83 24.82 17C24.82 14.16 24.82 13.85 24.82 12.75C24.82 12.08 24.69 11.41 24.45 10.79L24.45 10.8ZM16.25 22.41C15.54 22.41 14.83 22.27 14.18 21.99C13.52 21.72 12.92 21.32 12.42 20.82C11.92 20.32 11.52 19.72 11.25 19.06C10.98 18.41 10.85 17.7 10.85 17C10.85 15.92 11.17 14.88 11.76 13.99C12.36 13.1 13.2 12.4 14.19 11.99C15.18 11.58 16.27 11.48 17.32 11.69C18.37 11.9 19.33 12.42 20.09 13.17C20.85 13.93 21.36 14.9 21.57 15.95C21.78 17 21.67 18.09 21.25 19.08C20.84 20.06 20.15 20.91 19.26 21.5C18.36 22.09 17.32 22.41 16.25 22.41ZM21.91 12.65C21.6 12.61 21.31 12.47 21.1 12.23C20.89 12 20.77 11.69 20.77 11.38C20.77 11.06 20.89 10.76 21.1 10.53C21.31 10.29 21.6 10.14 21.91 10.11C22.22 10.14 22.51 10.29 22.73 10.53C22.94 10.76 23.05 11.06 23.05 11.38C23.05 11.69 22.94 12 22.73 12.23C22.51 12.47 22.22 12.61 21.91 12.65Z" fill="#3460A9" fill-opacity="1.000000" fill-rule="nonzero"/>
	</g>
</svg>
