<svg width="34.000000" height="34.000000" viewBox="0 0 34 34" fill="none" xmlns="http://www.w3.org/2000/svg" xmlns:xlink="http://www.w3.org/1999/xlink">
	<desc>
			Created with Pixso.
	</desc>
	<defs>
		<clipPath id="clip28_463">
			<rect id="Brands / telegram" width="34.000000" height="34.000000" transform="translate(-0.500000 0.000000)" fill="white" fill-opacity="0"/>
		</clipPath>
	</defs>
	<rect id="Brands / telegram" width="34.000000" height="34.000000" transform="translate(-0.500000 0.000000)" fill="#FFFFFF" fill-opacity="0"/>
	<g clip-path="url(#clip28_463)">
		<path id="Vector" d="M16.49 2.83C13.69 2.83 10.95 3.66 8.62 5.22C6.29 6.77 4.47 8.99 3.4 11.57C2.33 14.16 2.05 17.01 2.59 19.76C3.14 22.51 4.49 25.03 6.47 27.01C8.45 28.99 10.98 30.34 13.72 30.89C16.47 31.44 19.32 31.16 21.91 30.08C24.5 29.01 26.71 27.2 28.27 24.87C29.82 22.54 30.65 19.8 30.65 17C30.65 15.13 30.29 13.29 29.58 11.57C28.86 9.85 27.82 8.29 26.5 6.98C25.19 5.66 23.63 4.62 21.91 3.91C20.19 3.19 18.35 2.83 16.49 2.83ZM20.99 24.29C20.94 24.43 20.86 24.55 20.75 24.64C20.65 24.74 20.53 24.82 20.39 24.87C20.26 24.91 20.12 24.93 19.98 24.92C19.83 24.91 19.7 24.86 19.57 24.79L15.73 21.8L13.26 24.08C13.2 24.12 13.13 24.15 13.06 24.16C12.99 24.17 12.92 24.16 12.85 24.14L13.33 19.9L13.34 19.91L13.35 19.83C13.35 19.83 20.27 13.53 20.55 13.26C20.84 12.99 20.75 12.94 20.75 12.94C20.76 12.61 20.23 12.94 20.23 12.94L11.06 18.84L7.25 17.54C7.25 17.54 6.66 17.32 6.6 16.86C6.55 16.4 7.26 16.15 7.26 16.15L22.45 10.12C22.45 10.12 23.7 9.57 23.7 10.49L20.99 24.29Z" fill="#3460A9" fill-opacity="1.000000" fill-rule="nonzero"/>
	</g>
</svg>
