<svg width="215.000000" height="198.000000" viewBox="0 0 215 198" fill="none" xmlns="http://www.w3.org/2000/svg" xmlns:xlink="http://www.w3.org/1999/xlink">
	<desc>
			Created with Pixso.
	</desc>
	<defs/>
	<path id="Vector" d="M99.19 130.84C92.31 126.65 63.05 111.12 49.88 83.42C41.15 65.06 41.37 43.01 59.28 31.75C80.3 18.54 101.63 35.35 101.63 35.35C101.63 35.35 121.98 8.06 146.61 26.86C161.94 38.56 158.79 62.07 154.53 76.26C148.43 96.54 111.9 124.61 99.19 130.84Z" fill="#FFCE00" fill-opacity="1.000000" fill-rule="nonzero"/>
	<path id="Vector" d="M86.72 153.54C80.33 135.89 64.65 128.46 64.65 128.46C64.65 128.46 53.61 121.74 50.37 119.46C47.13 117.18 34.33 104.75 34.33 104.75C34.33 104.75 27.25 96.98 25.56 98.33C23.86 99.68 18.71 104.38 30.9 115.95C43.08 127.52 47.42 134.14 48.53 135.99C49.63 137.84 50 138.85 50 138.85C50 138.85 41.13 137.92 36.37 134.88C31.6 131.83 18.64 124.29 13.24 111.5C8.97 101.42 8.55 92.08 8.34 84.91C8.14 77.75 5.82 73.01 2.53 74.13C-0.76 75.25 -0.5 84.25 -0.26 90.37C-0.03 96.49 2.53 112.57 5.2 119.49C7.88 126.41 10.84 137.31 24.61 147.98C32.34 153.95 41.12 158.32 46.57 161.69C52.02 165.05 69.34 176.89 75.85 186.81C82.37 196.74 81.18 197.9 82.37 196.74C83.56 195.57 93.11 171.19 86.72 153.54L86.72 153.54Z" fill="#3F87FF" fill-opacity="1.000000" fill-rule="nonzero"/>
	<path id="Vector" d="M9.53 78.65C7.95 73.5 10.28 73.18 11.85 73.1C13.41 73.02 17.83 74.62 15.93 81C13.88 87.9 13.27 92.13 13.68 96.14C14.09 100.15 14.35 101.41 14.35 101.41C14.35 101.41 13.99 95.32 15.23 89.57C16.48 83.82 16.72 82.36 17.9 82.37C19.08 82.39 21.58 85.75 19.98 89.87C15.44 101.52 18.02 110.08 19.13 112.82C21.34 118.26 25.33 123.96 25.33 123.96C25.33 123.96 19.49 119.32 16.03 112.77C11.2 103.61 10.87 95.34 10.69 92.5C10.38 87.86 10.52 81.85 9.53 78.65L9.53 78.65Z" fill="#3F87FF" fill-opacity="1.000000" fill-rule="nonzero"/>
	<path id="Vector" d="M114.31 141.41C124.08 125.16 141.06 120.85 141.06 120.85C141.06 120.85 153.3 116.33 156.96 114.69C160.62 113.06 175.72 103.23 175.72 103.23C175.72 103.23 184.24 96.9 185.66 98.56C187.08 100.23 191.26 105.9 176.94 115C162.62 124.1 157.03 129.82 155.57 131.43C154.12 133.05 153.56 133.98 153.56 133.98C153.56 133.98 162.53 134.78 167.84 132.68C173.15 130.59 187.47 125.63 195.31 114.01C201.49 104.84 203.73 95.67 205.33 88.61C206.93 81.55 210.15 77.31 213.19 79.05C216.23 80.8 214.22 89.66 212.8 95.68C211.38 101.71 205.71 117.14 201.72 123.48C197.72 129.82 192.67 140.05 176.94 147.94C168.12 152.36 158.57 154.99 152.51 157.27C146.45 159.55 126.99 167.91 118.61 176.48C110.22 185.06 111.18 186.44 110.22 185.06C109.27 183.67 104.55 157.66 114.31 141.41L114.31 141.41Z" fill="#3F87FF" fill-opacity="1.000000" fill-rule="nonzero"/>
	<path id="Vector" d="M205.37 82.17C207.94 77.38 205.69 76.61 204.15 76.23C202.62 75.85 197.93 76.57 198.57 83.27C199.26 90.5 199.04 94.81 197.85 98.7C196.67 102.59 196.16 103.79 196.16 103.79C196.16 103.79 197.71 97.83 197.59 91.89C197.47 85.95 197.52 84.46 196.35 84.24C195.18 84.02 192.04 86.87 192.83 91.27C195.06 103.69 190.84 111.68 189.2 114.17C185.95 119.13 180.89 124 180.89 124C180.89 124 187.58 120.55 192.28 114.72C198.85 106.58 200.79 98.45 201.53 95.68C202.73 91.14 203.77 85.15 205.36 82.18L205.37 82.17Z" fill="#3F87FF" fill-opacity="1.000000" fill-rule="nonzero"/>
	<path id="Vector" d="M98.95 34.13C98.95 34.13 104 24.92 113.57 16.75C123.15 8.57 131.16 0.75 147.36 -0.3C163.55 -1.34 176.27 11.18 176.27 11.18C176.27 11.18 190.37 23.87 184.8 52.39C179.23 80.91 157.63 99.69 157.63 99.69C157.63 99.69 140.57 115.58 129.07 122.85C117.58 130.12 102.95 138.1 102.95 138.1C102.95 138.1 120.02 124.96 122.63 122.85C125.24 120.73 148.4 99.17 155.02 89.25C161.64 79.34 173.31 60.21 172.78 37.44C172.26 14.66 155.72 7.01 155.72 7.01C155.72 7.01 141.26 0.4 128.55 8.74C115.84 17.09 104.34 27.53 98.94 34.13L98.95 34.13Z" fill="#12ADE2" fill-opacity="1.000000" fill-rule="nonzero"/>
	<path id="Vector" d="M101.56 44.74C101.56 44.74 85.89 24.57 68.82 20.57C51.75 16.57 40.09 20.57 40.09 20.57C40.09 20.57 12.22 26.83 16.58 61.26C20.93 95.69 60.98 119.69 60.98 119.69L97.9 139.51C97.9 139.51 68.99 121.08 56.98 107.69C44.96 94.3 34.17 82.99 29.99 61.78C25.81 40.57 40.26 28.4 40.26 28.4C40.26 28.4 53.15 17.96 71.43 25.09C89.72 32.22 101.56 44.74 101.56 44.74L101.56 44.74Z" fill="#12ADE2" fill-opacity="1.000000" fill-rule="nonzero"/>
	<path id="Vector" d="M127.41 78.9C127.66 77.68 127.39 76.36 126.8 75.28C125.52 72.93 122.54 71.59 119.94 72.16C118.33 72.51 116.92 73.54 115.75 74.65L117.85 75.52C117.8 74.19 117.3 72.82 116.64 71.69C115.98 70.55 115.06 69.58 114 68.8C113.16 68.17 112.26 67.62 111.4 67.03C110.99 66.74 110.58 66.45 110.17 66.15C109.95 65.98 110.39 66.32 110.17 66.15C110.13 66.12 110.09 66.08 110.05 66.05C109.94 65.97 109.84 65.88 109.73 65.8C109.53 65.62 109.32 65.45 109.13 65.27C108.74 64.91 108.37 64.54 108.02 64.15C107.93 64.04 107.84 63.93 107.75 63.82C107.71 63.78 107.67 63.73 107.64 63.69C107.46 63.47 107.75 63.85 107.64 63.7C107.46 63.45 107.28 63.2 107.11 62.93C106.78 62.42 106.49 61.89 106.23 61.35C106.16 61.2 106.09 61.04 106.02 60.89C106.04 60.93 106.12 61.11 106.03 60.89C106 60.81 105.96 60.73 105.93 60.65C105.79 60.28 105.67 59.91 105.54 59.54C105.04 58.07 104.6 56.6 104.18 55.11C103.69 53.33 103.23 51.55 102.85 49.75C102.7 49.03 101.66 48.55 101.04 49.01C98.9 50.6 98.11 53.58 98.1 56.11C98.09 57.67 98.36 59.22 98.77 60.72L99.08 59.52C97.42 61.49 96.94 64.31 97.42 66.78C97.67 68.09 98.24 69.35 98.95 70.48L100.64 68.79C98.78 67.97 96.96 67.06 95.24 65.99C94.81 65.72 94.39 65.44 93.97 65.15C93.77 65.01 93.56 64.86 93.36 64.71C93.27 64.64 93.18 64.58 93.09 64.51C93.03 64.47 92.98 64.42 92.92 64.38C93.02 64.45 92.99 64.44 92.91 64.37C92.09 63.72 91.31 63.02 90.57 62.27C89.16 60.83 87.78 59.37 86.46 57.85C85.92 57.24 85.4 56.62 84.9 55.98C84.84 55.91 84.78 55.83 84.73 55.76C84.7 55.73 84.68 55.7 84.65 55.67C84.55 55.54 84.8 55.86 84.7 55.73C84.59 55.58 84.47 55.43 84.36 55.27C84.15 55 83.95 54.72 83.75 54.44C82.91 53.23 82.14 51.97 81.44 50.67C81.18 50.17 80.57 49.99 80.05 50.1C79.36 50.25 78.72 50.64 78.19 51.08C77.14 51.93 76.61 53.27 76.57 54.59C76.55 55.73 76.84 56.88 77.15 57.97C77.46 59.04 77.84 60.09 78.25 61.13C78.51 61.78 78.78 62.44 79.07 63.08L79.26 61.59C77.87 63.19 77.4 65.46 77.73 67.52C78 69.18 78.88 70.73 79.89 72.05C80.75 73.17 81.74 74.14 82.88 74.98C83.35 75.32 83.85 75.66 84.38 75.89L83.94 74.21C83.23 75.66 83.09 77.42 83.79 78.9C84.25 79.87 85.15 80.61 86.05 81.16C86.83 81.65 87.69 82.02 88.56 82.33C89 82.49 89.45 82.64 89.9 82.75L89.04 81.23C88.74 82.73 88.93 84.35 89.6 85.73C90.18 86.92 91.21 87.75 92.36 88.36C93.51 88.97 94.77 89.44 96.05 89.76C96.77 89.95 97.51 90.09 98.26 90.17L97.19 89.56C97.98 90.76 99.17 91.72 100.5 92.23C102.01 92.82 103.87 92.58 105.09 91.48L102.98 90.61C102.96 90.82 103.05 90.18 103 90.46C102.98 90.61 102.96 90.76 102.94 90.91C102.85 91.41 102.75 91.92 102.63 92.42C102.47 93.12 102.28 93.81 102.06 94.49C101.94 94.87 101.81 95.26 101.66 95.64C101.62 95.73 101.58 95.83 101.55 95.92C101.53 95.95 101.52 95.99 101.5 96.02C101.42 96.22 101.52 95.96 101.54 95.94C101.41 96.12 101.34 96.37 101.25 96.57C101.07 96.94 100.88 97.31 100.67 97.66C100.57 97.84 100.46 98.01 100.35 98.18C100.29 98.26 100.23 98.35 100.17 98.43C100.14 98.48 99.92 98.76 100.04 98.61C100.17 98.44 99.95 98.72 99.93 98.75C99.87 98.81 99.81 98.88 99.76 98.94C99.61 99.11 99.46 99.27 99.3 99.42C99.16 99.55 99.01 99.67 98.86 99.79C98.77 99.87 98.67 99.94 98.58 100.02C98.44 100.13 98.75 99.89 98.61 100C98.55 100.04 98.49 100.09 98.43 100.14C97.57 100.77 96.67 101.34 95.73 101.85C95.27 102.1 94.79 102.34 94.31 102.56C94.19 102.61 94.07 102.67 93.95 102.72C93.88 102.75 93.52 102.9 93.79 102.79C93.53 102.9 93.27 103 93.01 103.1C91.94 103.49 90.83 103.81 89.7 103.99C89.65 104 89.57 104 89.52 104.02C89.65 103.97 89.73 103.99 89.55 104.01C89.42 104.03 89.29 104.04 89.16 104.05C88.91 104.07 88.66 104.09 88.4 104.09C88.15 104.09 87.89 104.08 87.63 104.06C87.53 104.06 87.39 104.01 87.28 104.03C87.31 104.03 87.59 104.08 87.38 104.04C87.31 104.03 87.23 104.02 87.16 104C86.66 103.91 86.18 104.03 85.86 104.44C85.56 104.83 85.51 105.38 85.76 105.81C86.19 106.52 86.72 107.18 87.28 107.79C88.25 108.83 89.53 109.83 90.98 110.03C92.05 110.19 93.09 109.99 94.02 109.41L92.16 108.35C92.17 109.26 92.41 110.21 92.82 111.02C93.64 112.67 95.51 113.42 97.29 113.23C97.98 113.15 98.62 113.01 99.25 112.73L97.39 111.66C97.4 112.11 97.54 112.59 97.77 112.97C98.26 113.8 99.13 114.2 100.07 114.27C101.01 114.34 101.92 114.09 102.65 113.56C103.38 113.03 103.96 112.36 104.51 111.64C105.01 110.97 105.46 110.27 105.91 109.57C106.14 109.22 106.36 108.87 106.59 108.53C106.7 108.38 106.8 108.23 106.9 108.08C106.95 108.01 107.01 107.94 107.06 107.87C107.24 107.63 106.92 108.04 107.07 107.85C107.26 107.63 107.46 107.41 107.68 107.21C107.87 107.03 107.46 107.35 107.61 107.26C107.65 107.23 107.7 107.2 107.75 107.17C107.79 107.14 107.84 107.13 107.88 107.1C107.6 107.31 107.62 107.21 107.78 107.15C108.25 106.97 108.75 106.85 109.24 106.72C112.83 105.74 116.33 104.29 118.87 101.46C121.83 98.15 123.1 93.8 123.46 89.45C123.52 88.68 123.55 87.9 123.57 87.12C123.57 86.8 123.57 86.48 123.57 86.16C123.57 86.05 123.58 85.94 123.58 85.83C123.59 85.79 123.61 85.41 123.6 85.61C123.58 85.81 123.63 85.44 123.64 85.39C123.67 85.26 123.7 85.14 123.73 85.01C123.76 84.9 123.8 84.79 123.84 84.69C123.86 84.63 123.88 84.58 123.9 84.53C123.97 84.32 123.89 84.55 123.87 84.58C124 84.37 124.09 84.12 124.22 83.9C124.28 83.8 124.34 83.7 124.41 83.61C124.44 83.56 124.47 83.52 124.5 83.47C124.56 83.39 124.55 83.32 124.47 83.52C124.55 83.32 124.8 83.12 124.95 82.98C125.02 82.91 125.09 82.85 125.17 82.78C125.21 82.74 125.25 82.71 125.3 82.67C125.46 82.53 125.28 82.69 125.25 82.7C125.46 82.62 125.68 82.41 125.89 82.29C125.98 82.24 126.09 82.19 126.19 82.14C126.29 82.09 126.27 82.04 126.13 82.16C126.16 82.14 126.25 82.11 126.28 82.1C126.51 82.02 126.74 81.95 126.98 81.9C127.04 81.89 127.09 81.88 127.15 81.87C127.31 81.83 126.9 81.89 127.08 81.88C127.19 81.87 127.31 81.85 127.42 81.85C127.68 81.84 127.93 81.85 128.18 81.88C128.66 81.93 129.14 81.53 129.31 81.12C129.5 80.66 129.39 80.14 129.05 79.78C128.41 79.08 127.76 78.38 127.11 77.69C126.67 77.21 125.8 77.21 125.36 77.69C124.9 78.19 124.89 78.92 125.36 79.43C126.01 80.13 126.66 80.82 127.31 81.52C127.6 80.82 127.89 80.12 128.18 79.41C126 79.18 123.89 80.26 122.57 81.96C121.94 82.78 121.46 83.75 121.26 84.77C121.09 85.61 121.12 86.46 121.1 87.31C121.09 88.08 121.05 88.84 120.98 89.6C120.97 89.81 120.94 90.03 120.92 90.24C120.91 90.35 120.9 90.46 120.89 90.56C120.88 90.62 120.87 90.67 120.87 90.73C120.83 91.01 120.9 90.52 120.87 90.69C120.8 91.16 120.73 91.63 120.63 92.1C120.44 93.08 120.18 94.04 119.85 94.98C119.77 95.22 119.68 95.46 119.58 95.7C119.56 95.76 119.53 95.82 119.51 95.88C119.44 96.04 119.6 95.68 119.52 95.85C119.46 95.98 119.41 96.12 119.34 96.25C119.12 96.73 118.88 97.2 118.61 97.65C118.32 98.13 118.01 98.6 117.68 99.05C117.66 99.08 117.52 99.25 117.62 99.13C117.71 99.01 117.57 99.18 117.55 99.21C117.47 99.31 117.38 99.42 117.29 99.52C117.11 99.73 116.92 99.94 116.73 100.14C116.37 100.5 116 100.84 115.6 101.16C115.56 101.2 115.51 101.24 115.46 101.28C115.27 101.43 115.48 101.27 115.49 101.25C115.45 101.33 115.27 101.42 115.2 101.47C114.99 101.62 114.78 101.76 114.57 101.9C113.8 102.4 112.99 102.81 112.15 103.18C111.95 103.27 112.21 103.14 112.23 103.14C112.2 103.14 112.12 103.19 112.09 103.2C111.99 103.24 111.89 103.28 111.8 103.32C111.6 103.4 111.4 103.47 111.2 103.54C110.83 103.67 110.45 103.79 110.08 103.91C108.95 104.26 107.72 104.45 106.65 104.96C106.09 105.23 105.64 105.72 105.26 106.2C104.74 106.86 104.29 107.55 103.83 108.25C103.38 108.96 102.93 109.66 102.43 110.32C102.4 110.36 102.37 110.4 102.34 110.44C102.35 110.42 102.53 110.2 102.4 110.36C102.34 110.43 102.28 110.5 102.22 110.58C102.11 110.72 101.99 110.85 101.86 110.99C101.74 111.11 101.62 111.23 101.49 111.34C101.43 111.39 101.35 111.44 101.3 111.5C101.31 111.5 101.56 111.32 101.41 111.42C101.37 111.45 101.33 111.48 101.29 111.5C101.17 111.59 101.04 111.65 100.91 111.72C100.78 111.8 101.19 111.62 101.06 111.66C101.03 111.67 101.01 111.68 100.98 111.69C100.9 111.71 100.82 111.74 100.74 111.75C100.71 111.76 100.55 111.8 100.54 111.79C100.54 111.79 100.85 111.76 100.59 111.78C100.48 111.79 100.37 111.79 100.26 111.79C100.2 111.79 99.92 111.76 100.14 111.8C100.36 111.83 100.04 111.77 99.99 111.76C99.71 111.69 100.16 111.87 100.02 111.78C99.97 111.75 99.91 111.71 99.85 111.68C99.73 111.62 100.08 111.91 99.92 111.73C99.91 111.71 99.88 111.68 99.86 111.67C99.74 111.55 100.03 111.92 99.97 111.81C99.93 111.73 99.77 111.43 99.88 111.68C99.98 111.93 99.88 111.64 99.86 111.56C99.85 111.55 99.85 111.47 99.84 111.47C99.82 111.46 99.9 111.82 99.88 111.74C99.88 111.73 99.87 111.72 99.87 111.71C99.88 111.7 99.87 111.66 99.87 111.64C99.87 111.21 99.63 110.8 99.26 110.58C98.84 110.34 98.43 110.4 98.01 110.58C98.61 110.32 98 110.57 97.83 110.62C97.66 110.67 97.51 110.7 97.34 110.73C97.29 110.74 97.24 110.75 97.18 110.76C97.37 110.73 97.39 110.73 97.25 110.75C97.15 110.75 97.06 110.76 96.97 110.77C96.74 110.78 96.51 110.77 96.27 110.74C96.58 110.78 96.13 110.7 96.08 110.69C95.97 110.66 95.86 110.62 95.76 110.59C95.62 110.54 95.61 110.53 95.73 110.58C95.68 110.56 95.64 110.53 95.6 110.51C95.53 110.47 95.47 110.43 95.41 110.39C95.23 110.28 95.62 110.58 95.37 110.35C95.31 110.3 95.26 110.23 95.2 110.17C95.16 110.1 95.11 110.04 95.07 109.97C95.03 109.9 94.99 109.83 94.96 109.76C94.94 109.72 94.81 109.45 94.91 109.66C95.01 109.87 94.89 109.61 94.88 109.56C94.85 109.49 94.83 109.42 94.81 109.35C94.77 109.22 94.74 109.08 94.71 108.95C94.69 108.87 94.63 108.45 94.66 108.73C94.7 109 94.66 108.66 94.65 108.59C94.64 108.5 94.64 108.41 94.64 108.32C94.64 107.41 93.58 106.76 92.78 107.26C92.66 107.33 92.4 107.41 92.31 107.51C92.31 107.51 92.56 107.42 92.44 107.46C92.4 107.47 92.35 107.49 92.31 107.51C92.23 107.53 92.16 107.56 92.08 107.57C92 107.59 91.92 107.6 91.85 107.62C91.7 107.65 92.14 107.6 91.98 107.6C91.95 107.6 91.92 107.61 91.89 107.61C91.72 107.62 91.57 107.59 91.41 107.6C91.28 107.6 91.59 107.63 91.58 107.62C91.54 107.61 91.49 107.61 91.45 107.6C91.38 107.59 91.31 107.57 91.24 107.55C91.1 107.51 90.96 107.46 90.82 107.42C90.68 107.37 91.07 107.53 90.94 107.47C90.91 107.45 90.88 107.44 90.85 107.43C90.78 107.4 90.72 107.36 90.65 107.33C90.51 107.25 90.37 107.17 90.23 107.08C90.12 107 90.01 106.92 89.89 106.84C89.77 106.75 90.1 107.01 89.99 106.91C89.96 106.89 89.94 106.87 89.91 106.85C89.85 106.8 89.78 106.74 89.72 106.69C89.5 106.49 89.29 106.29 89.09 106.08C88.9 105.88 88.72 105.67 88.55 105.46C88.51 105.41 88.47 105.37 88.44 105.32C88.32 105.17 88.64 105.59 88.5 105.39C88.43 105.31 88.37 105.23 88.31 105.14C88.17 104.95 88.03 104.75 87.91 104.54L86.51 106.35C88.61 106.74 90.78 106.39 92.8 105.74C94.99 105.04 97.09 104.01 98.99 102.72C99.84 102.14 100.71 101.52 101.41 100.76C102.05 100.07 102.59 99.29 103.04 98.47C103.87 96.94 104.46 95.28 104.89 93.6C105.14 92.6 105.34 91.59 105.46 90.58C105.52 90.1 105.1 89.62 104.7 89.45C104.23 89.25 103.73 89.37 103.36 89.7C103.21 89.83 103.51 89.57 103.52 89.58C103.51 89.58 103.31 89.73 103.29 89.74C103.18 89.81 103.06 89.86 102.95 89.92C102.82 89.99 103.21 89.83 103.07 89.87C103.03 89.88 103 89.9 102.97 89.91C102.88 89.94 102.78 89.97 102.69 89.99C102.67 90 102.38 90.06 102.38 90.06C102.38 90.05 102.64 90.04 102.5 90.04C102.45 90.04 102.41 90.05 102.37 90.05C102.24 90.06 102.12 90.06 102 90.05C101.95 90.05 101.9 90.04 101.85 90.04C101.68 90.03 102.14 90.11 101.83 90.03C101.76 90.01 101.18 89.91 101.16 89.82C101.16 89.82 101.37 89.93 101.25 89.86C101.21 89.84 101.16 89.82 101.12 89.8C101 89.74 100.89 89.68 100.77 89.61C100.68 89.56 100.6 89.5 100.52 89.45C100.47 89.42 100.2 89.25 100.37 89.35C100.53 89.44 100.28 89.28 100.25 89.24C100.17 89.18 100.1 89.11 100.02 89.04C99.8 88.84 99.6 88.62 99.41 88.39C99.22 88.16 99.59 88.65 99.42 88.4C99.39 88.36 99.37 88.32 99.34 88.29C99.06 87.9 98.75 87.73 98.27 87.67C98.2 87.66 98.07 87.64 98.34 87.68C98.64 87.72 98.37 87.69 98.29 87.67C98.19 87.66 98.08 87.64 97.98 87.62C97.68 87.57 97.37 87.51 97.08 87.44C96.27 87.25 95.46 87.01 94.69 86.7C94.64 86.68 94.6 86.66 94.55 86.64C94.38 86.58 94.74 86.73 94.57 86.65C94.47 86.61 94.36 86.56 94.25 86.51C94.02 86.41 93.79 86.29 93.57 86.17C93.36 86.06 93.15 85.93 92.94 85.81C92.85 85.75 92.76 85.68 92.66 85.62C92.55 85.55 92.64 85.53 92.71 85.66C92.69 85.62 92.61 85.58 92.58 85.55C92.43 85.42 92.3 85.29 92.17 85.14C92.16 85.13 92.07 85.02 92.07 85.02C92.08 85.02 92.22 85.23 92.14 85.12C92.09 85.03 92.03 84.95 91.97 84.87C91.88 84.72 91.8 84.57 91.72 84.41C91.59 84.15 91.79 84.61 91.72 84.41C91.69 84.32 91.65 84.24 91.62 84.15C91.56 83.97 91.52 83.78 91.48 83.59C91.46 83.51 91.44 83.42 91.43 83.34C91.38 83.07 91.45 83.61 91.43 83.35C91.4 83.05 91.38 82.74 91.39 82.44C91.39 82.23 91.41 82.02 91.43 81.81C91.45 81.67 91.37 82.2 91.41 82C91.41 81.98 91.42 81.95 91.42 81.92C91.42 81.9 91.43 81.88 91.43 81.85C91.56 81.22 91.25 80.5 90.57 80.34C90.26 80.26 89.95 80.17 89.64 80.07C89.34 79.97 89.01 79.84 88.7 79.72C88.5 79.64 88.96 79.84 88.68 79.71C88.59 79.68 88.51 79.64 88.43 79.6C88.24 79.52 88.06 79.42 87.88 79.33C87.51 79.14 87.16 78.92 86.82 78.68C86.57 78.5 86.94 78.78 86.78 78.64C86.71 78.58 86.63 78.52 86.56 78.45C86.49 78.39 86.43 78.33 86.36 78.26C86.32 78.22 86.29 78.18 86.25 78.14C86.23 78.12 86.07 77.9 86.16 78.04C86.25 78.17 86.16 78.03 86.15 78.01C86.12 77.96 86.09 77.91 86.06 77.86C86.03 77.81 85.88 77.54 85.96 77.69C86.04 77.85 85.92 77.57 85.91 77.51C85.87 77.41 85.85 77.3 85.83 77.19C85.83 77.19 85.81 77.04 85.8 77.03C85.82 77.05 85.82 77.34 85.82 77.12C85.81 77.03 85.81 76.94 85.8 76.85C85.8 76.66 85.84 76.47 85.84 76.29C85.85 76.56 85.8 76.51 85.82 76.41C85.83 76.35 85.84 76.3 85.85 76.24C85.87 76.16 85.89 76.08 85.91 75.99C85.94 75.84 85.99 75.69 86.04 75.55C86.07 75.45 86.11 75.36 86.14 75.26C85.98 75.71 86.03 75.53 86.08 75.42C86.35 74.87 86.28 74.02 85.64 73.73C85.26 73.57 84.9 73.34 84.56 73.11C84.38 72.99 84.21 72.87 84.04 72.75C83.97 72.69 83.81 72.54 84.09 72.78C84.05 72.75 84 72.71 83.96 72.68C83.84 72.59 83.72 72.49 83.61 72.39C83.17 72 82.75 71.59 82.36 71.15C82.24 71.01 82.13 70.88 82.01 70.74C81.98 70.69 81.93 70.64 81.9 70.59C82.07 70.85 81.89 70.58 81.86 70.54C81.62 70.22 81.4 69.89 81.19 69.55C81 69.23 80.81 68.9 80.65 68.56C80.6 68.48 80.56 68.39 80.52 68.3C80.63 68.54 80.49 68.22 80.48 68.19C80.41 67.99 80.34 67.79 80.28 67.59C80.23 67.4 80.18 67.21 80.15 67.02C80.14 66.99 80.12 66.83 80.12 66.83L80.13 66.97C80.13 66.91 80.12 66.85 80.11 66.79C80.08 66.45 80.08 66.11 80.1 65.77C80.11 65.71 80.11 65.66 80.11 65.61C80.13 65.46 80.22 65.37 80.11 65.62C80.16 65.51 80.15 65.34 80.18 65.22C80.24 64.96 80.31 64.71 80.4 64.46C80.42 64.4 80.44 64.34 80.47 64.28C80.57 64.01 80.41 64.39 80.45 64.32C80.5 64.22 80.55 64.1 80.6 64C80.68 63.83 80.78 63.67 80.87 63.51C80.95 63.39 81.03 63.28 81.11 63.17C81.19 63.06 80.86 63.49 80.99 63.33C81 63.32 81.01 63.3 81.02 63.29C81.41 62.84 81.45 62.33 81.21 61.8C81.16 61.69 81.1 61.57 81.05 61.45C81.03 61.4 81.01 61.34 80.98 61.29C80.96 61.23 80.84 60.96 80.94 61.2C81.05 61.44 80.92 61.13 80.89 61.08C80.85 60.98 80.81 60.87 80.77 60.77C80.39 59.84 80.04 58.9 79.73 57.94C79.56 57.41 79.41 56.87 79.28 56.32C79.23 56.09 79.18 55.85 79.14 55.62C79.12 55.55 79.11 55.48 79.1 55.41C79.09 55.37 79.06 55.14 79.09 55.37C79.12 55.61 79.09 55.38 79.09 55.34C79.08 55.27 79.08 55.19 79.07 55.12C79.05 54.91 79.04 54.71 79.05 54.5C79.05 54.45 79.1 54.23 79.07 54.19L79.05 54.34C79.06 54.29 79.07 54.23 79.09 54.17C79.1 54.09 79.12 54.01 79.15 53.93C79.17 53.83 79.28 53.66 79.27 53.56L79.21 53.72C79.23 53.67 79.25 53.63 79.27 53.59C79.3 53.52 79.34 53.46 79.37 53.4C79.43 53.31 79.51 53.22 79.56 53.12C79.4 53.39 79.44 53.27 79.51 53.2C79.56 53.14 79.61 53.09 79.66 53.04C79.74 52.95 79.83 52.88 79.92 52.8C80.09 52.65 79.66 52.97 79.85 52.86C79.89 52.83 79.93 52.8 79.98 52.77C80.13 52.67 80.3 52.59 80.46 52.5C80.63 52.42 80.14 52.63 80.31 52.57C80.34 52.56 80.37 52.54 80.4 52.53C80.45 52.51 80.5 52.49 80.56 52.48C80.61 52.46 80.66 52.45 80.71 52.44L79.32 51.87C80.69 54.43 82.36 56.79 84.25 59.01C85.52 60.51 86.86 61.95 88.23 63.36C89.77 64.95 91.43 66.38 93.27 67.6C95.12 68.83 97.28 69.94 99.4 70.88C99.89 71.1 100.5 71.12 100.89 70.69C101.26 70.29 101.38 69.67 101.09 69.19C100.91 68.91 100.73 68.61 100.57 68.31C100.51 68.17 100.44 68.04 100.37 67.9C100.34 67.83 100.32 67.76 100.28 67.7C100.22 67.57 100.35 67.86 100.26 67.64C100.07 67.12 99.9 66.59 99.79 66.04C99.78 65.96 99.77 65.89 99.75 65.81C99.75 65.76 99.73 65.57 99.75 65.75C99.77 65.95 99.73 65.57 99.73 65.53C99.71 65.28 99.7 65.03 99.7 64.78C99.7 64.57 99.71 64.37 99.73 64.16C99.74 64.11 99.75 64.06 99.75 64.01C99.76 63.85 99.7 64.27 99.73 64.12C99.75 64 99.77 63.88 99.79 63.76C99.86 63.4 99.96 63.04 100.08 62.69C100.11 62.61 100.14 62.54 100.16 62.46C100.18 62.41 100.3 62.14 100.2 62.37C100.1 62.6 100.22 62.33 100.25 62.27C100.28 62.21 100.31 62.14 100.35 62.07C100.52 61.72 100.73 61.4 100.95 61.08C101.04 60.95 100.7 61.4 100.83 61.24C101.13 60.86 101.26 60.52 101.16 60.03C101.03 59.42 100.86 58.83 100.75 58.22C100.73 58.08 100.71 57.95 100.69 57.82C100.68 57.76 100.64 57.59 100.7 57.86C100.68 57.8 100.68 57.73 100.67 57.67C100.64 57.39 100.62 57.12 100.6 56.84C100.58 56.37 100.58 55.9 100.6 55.43C100.62 55.23 100.63 55.03 100.66 54.83C100.66 54.78 100.67 54.73 100.67 54.68C100.65 55.02 100.65 54.88 100.66 54.8C100.68 54.68 100.7 54.57 100.72 54.46C100.78 54.1 100.87 53.75 100.97 53.41C101.02 53.27 101.07 53.12 101.12 52.98C101.15 52.91 101.18 52.84 101.2 52.77C101.27 52.6 101.14 52.93 101.14 52.92C101.16 52.87 101.18 52.83 101.2 52.78C101.31 52.53 101.43 52.3 101.57 52.07C101.69 51.86 101.84 51.66 101.98 51.45C102.03 51.38 101.75 51.74 101.91 51.55C101.94 51.51 101.97 51.47 102.01 51.43C102.06 51.37 102.11 51.31 102.17 51.25C102.25 51.16 102.34 51.08 102.43 50.99C102.62 50.82 102.39 51.02 102.29 51.1L100.48 50.36C100.78 51.83 101.16 53.3 101.55 54.75C101.94 56.21 102.32 57.54 102.76 58.91C103.22 60.36 103.7 61.82 104.42 63.17C105.54 65.28 107.2 66.94 109.1 68.36C109.92 68.97 110.77 69.53 111.61 70.1C111.82 70.24 112.03 70.38 112.24 70.52C112.33 70.59 112.43 70.65 112.53 70.72C112.58 70.76 112.63 70.79 112.68 70.83C112.74 70.87 112.79 70.91 112.85 70.95C112.74 70.87 112.73 70.86 112.79 70.92C113.03 71.12 113.26 71.31 113.47 71.53C113.67 71.72 113.94 71.96 114.07 72.2C114.05 72.17 113.9 71.97 114.03 72.15C114.08 72.22 114.13 72.29 114.18 72.36C114.27 72.49 114.36 72.63 114.44 72.76C114.58 72.99 114.7 73.22 114.82 73.46C114.86 73.55 115.01 73.97 114.88 73.58C114.91 73.68 114.96 73.78 115 73.88C115.07 74.09 115.14 74.29 115.2 74.5C115.28 74.81 115.34 75.12 115.4 75.44C115.42 75.6 115.35 75.03 115.37 75.28C115.38 75.32 115.38 75.36 115.39 75.4C115.39 75.43 115.39 75.46 115.39 75.49C115.44 76.56 116.71 77.11 117.5 76.36C117.73 76.15 117.96 75.93 118.21 75.73C118.26 75.69 118.31 75.65 118.37 75.6C118.33 75.63 118.18 75.74 118.37 75.61C118.5 75.5 118.65 75.41 118.79 75.31C119.03 75.16 119.27 75.01 119.53 74.88C119.58 74.85 120.01 74.66 119.73 74.78C119.86 74.73 120 74.67 120.14 74.63C120.39 74.55 120.68 74.46 120.94 74.44C120.61 74.46 121.06 74.44 121.14 74.44C121.28 74.44 121.43 74.44 121.57 74.45C121.59 74.45 121.9 74.5 121.7 74.46C121.53 74.43 121.75 74.47 121.79 74.48C121.94 74.51 122.09 74.55 122.24 74.6C122.37 74.64 122.51 74.68 122.64 74.74C122.42 74.65 122.59 74.72 122.63 74.74C122.72 74.78 122.81 74.82 122.9 74.87C123.13 74.99 123.36 75.12 123.57 75.27C123.63 75.31 123.69 75.35 123.74 75.39C123.89 75.49 123.73 75.34 123.69 75.35C123.75 75.34 123.95 75.57 123.99 75.61C124.13 75.74 124.26 75.89 124.39 76.03C124.52 76.18 124.34 75.96 124.33 75.95C124.36 75.99 124.4 76.04 124.43 76.08C124.49 76.17 124.55 76.26 124.6 76.35C124.67 76.47 124.74 76.73 124.84 76.82C124.83 76.81 124.72 76.51 124.78 76.68C124.8 76.71 124.81 76.75 124.82 76.79C124.85 76.87 124.88 76.96 124.91 77.04C124.95 77.18 124.98 77.32 125.01 77.46C125.02 77.53 125.03 77.6 125.04 77.67C125.05 77.69 125 77.3 125.02 77.47C125.02 77.51 125.03 77.56 125.03 77.6C125.04 77.82 125.05 78.04 125.03 78.27C125.03 78.3 125.02 78.33 125.02 78.37C125.01 78.57 125.06 78.02 125.05 78.14C125.05 78.17 125.04 78.19 125.04 78.21C124.91 78.84 125.22 79.57 125.9 79.73C126.52 79.87 127.28 79.54 127.42 78.87L127.41 78.9Z" fill="#FFFFFF" fill-opacity="1.000000" fill-rule="nonzero"/>
</svg>
