<svg width="43.000000" height="40.000000" viewBox="0 0 43 40" fill="none" xmlns="http://www.w3.org/2000/svg" xmlns:xlink="http://www.w3.org/1999/xlink">
	<desc>
			Created with Pixso.
	</desc>
	<defs/>
	<path id="Vector" d="M19.9 26.21C18.52 25.38 12.67 22.27 10.04 16.74C8.3 13.07 8.34 8.66 11.92 6.41C16.12 3.77 20.38 7.13 20.38 7.13C20.38 7.13 24.45 1.68 29.37 5.43C32.44 7.77 31.81 12.47 30.95 15.31C29.74 19.36 22.44 24.97 19.9 26.21Z" fill="#FFCE00" fill-opacity="1.000000" fill-rule="nonzero"/>
	<path id="Vector" d="M17.4 30.75C16.13 27.22 12.99 25.74 12.99 25.74C12.99 25.74 10.79 24.4 10.14 23.94C9.49 23.48 6.93 21 6.93 21C6.93 21 5.52 19.45 5.18 19.72C4.84 19.99 3.81 20.93 6.25 23.24C8.68 25.55 9.55 26.87 9.77 27.24C9.99 27.61 10.06 27.81 10.06 27.81C10.06 27.81 8.29 27.63 7.34 27.02C6.39 26.41 3.8 24.9 2.72 22.35C1.87 20.33 1.78 18.47 1.74 17.04C1.7 15.6 1.24 14.66 0.58 14.88C-0.08 15.11 -0.03 16.9 0.02 18.13C0.07 19.35 0.58 22.56 1.11 23.95C1.65 25.33 2.24 27.51 4.99 29.64C6.54 30.83 8.29 31.71 9.38 32.38C10.47 33.05 13.93 35.42 15.23 37.4C16.53 39.38 16.3 39.62 16.53 39.38C16.77 39.15 18.68 34.28 17.4 30.75L17.4 30.75Z" fill="#3460A9" fill-opacity="1.000000" fill-rule="nonzero"/>
	<path id="Vector" d="M1.98 15.78C1.66 14.75 2.13 14.69 2.44 14.68C2.75 14.66 3.64 14.98 3.26 16.25C2.85 17.63 2.72 18.48 2.81 19.28C2.89 20.08 2.94 20.33 2.94 20.33C2.94 20.33 2.87 19.12 3.12 17.97C3.37 16.82 3.41 16.53 3.65 16.53C3.89 16.53 4.39 17.2 4.07 18.03C3.16 20.35 3.67 22.07 3.9 22.61C4.34 23.7 5.13 24.84 5.13 24.84C5.13 24.84 3.97 23.91 3.28 22.6C2.31 20.77 2.25 19.12 2.21 18.55C2.15 17.63 2.17 16.42 1.98 15.78L1.98 15.78Z" fill="#3460A9" fill-opacity="1.000000" fill-rule="nonzero"/>
	<path id="Vector" d="M22.92 28.33C24.87 25.08 28.26 24.22 28.26 24.22C28.26 24.22 30.71 23.31 31.44 22.99C32.17 22.66 35.19 20.7 35.19 20.7C35.19 20.7 36.89 19.43 37.18 19.76C37.46 20.1 38.3 21.23 35.43 23.05C32.57 24.87 31.45 26.01 31.16 26.33C30.87 26.66 30.76 26.84 30.76 26.84C30.76 26.84 32.55 27 33.61 26.58C34.68 26.16 37.54 25.17 39.1 22.85C40.34 21.02 40.79 19.19 41.11 17.77C41.43 16.36 42.07 15.52 42.68 15.87C43.29 16.21 42.88 17.99 42.6 19.19C42.32 20.39 41.18 23.48 40.38 24.74C39.59 26.01 38.58 28.05 35.43 29.63C33.67 30.52 31.76 31.04 30.55 31.5C29.34 31.95 25.45 33.62 23.78 35.34C22.1 37.05 22.29 37.33 22.1 37.05C21.91 36.77 20.97 31.57 22.92 28.33L22.92 28.33Z" fill="#3460A9" fill-opacity="1.000000" fill-rule="nonzero"/>
	<path id="Vector" d="M41.11 16.49C41.63 15.53 41.18 15.38 40.87 15.3C40.57 15.22 39.63 15.37 39.76 16.71C39.89 18.15 39.85 19.01 39.61 19.79C39.38 20.57 39.28 20.81 39.28 20.81C39.28 20.81 39.58 19.62 39.56 18.43C39.54 17.24 39.55 16.95 39.31 16.9C39.08 16.86 38.45 17.43 38.61 18.31C39.05 20.79 38.21 22.38 37.88 22.88C37.23 23.87 36.22 24.85 36.22 24.85C36.22 24.85 37.56 24.16 38.5 22.99C39.81 21.37 40.2 19.74 40.35 19.19C40.59 18.28 40.79 17.08 41.11 16.49L41.11 16.49Z" fill="#3460A9" fill-opacity="1.000000" fill-rule="nonzero"/>
	<path id="Vector" d="M19.85 6.89C19.85 6.89 20.86 5.05 22.77 3.41C24.68 1.78 26.29 0.22 29.52 0.01C32.76 -0.2 35.3 2.3 35.3 2.3C35.3 2.3 38.12 4.84 37 10.54C35.89 16.24 31.57 19.99 31.57 19.99C31.57 19.99 28.16 23.16 25.87 24.62C23.57 26.07 20.65 27.67 20.65 27.67C20.65 27.67 24.06 25.04 24.58 24.62C25.1 24.19 29.73 19.88 31.05 17.9C32.38 15.92 34.71 12.1 34.6 7.55C34.5 3 31.19 1.47 31.19 1.47C31.19 1.47 28.3 0.15 25.76 1.81C23.22 3.48 20.93 5.57 19.85 6.89L19.85 6.89Z" fill="#12ADE2" fill-opacity="1.000000" fill-rule="nonzero"/>
	<path id="Vector" d="M20.37 9.01C20.37 9.01 17.24 4.98 13.83 4.18C10.42 3.38 8.08 4.18 8.08 4.18C8.08 4.18 2.52 5.43 3.39 12.31C4.26 19.19 12.26 23.99 12.26 23.99L19.64 27.95C19.64 27.95 13.86 24.26 11.46 21.59C9.06 18.91 6.9 16.65 6.07 12.41C5.23 8.17 8.12 5.74 8.12 5.74C8.12 5.74 10.69 3.66 14.35 5.08C18 6.51 20.37 9.01 20.37 9.01L20.37 9.01Z" fill="#12ADE2" fill-opacity="1.000000" fill-rule="nonzero"/>
	<path id="Vector" d="M25.53 15.83C25.58 15.59 25.53 15.33 25.41 15.11C25.16 14.64 24.56 14.37 24.04 14.49C23.72 14.56 23.44 14.76 23.2 14.99L23.63 15.16C23.61 14.89 23.52 14.62 23.38 14.39C23.25 14.17 23.07 13.97 22.85 13.82C22.69 13.69 22.51 13.58 22.34 13.46C22.25 13.4 22.17 13.35 22.09 13.29C22.05 13.25 22.13 13.32 22.09 13.29C22.08 13.28 22.07 13.27 22.06 13.27C22.04 13.25 22.02 13.23 22 13.22C21.96 13.18 21.92 13.15 21.88 13.11C21.8 13.04 21.73 12.96 21.66 12.89C21.64 12.86 21.62 12.84 21.61 12.82C21.6 12.81 21.59 12.8 21.58 12.79C21.55 12.75 21.61 12.83 21.59 12.8C21.55 12.75 21.51 12.7 21.48 12.64C21.41 12.54 21.35 12.44 21.3 12.33C21.29 12.3 21.27 12.27 21.26 12.23C21.26 12.24 21.28 12.28 21.26 12.24C21.26 12.22 21.25 12.2 21.24 12.19C21.21 12.11 21.19 12.04 21.16 11.96C21.07 11.67 20.98 11.38 20.89 11.08C20.79 10.73 20.7 10.37 20.63 10.01C20.6 9.86 20.39 9.77 20.26 9.86C19.84 10.18 19.68 10.77 19.68 11.28C19.68 11.59 19.73 11.9 19.81 12.2L19.87 11.96C19.54 12.35 19.44 12.92 19.54 13.41C19.59 13.67 19.71 13.93 19.85 14.15L20.18 13.81C19.81 13.65 19.45 13.47 19.11 13.25C19.02 13.2 18.94 13.14 18.85 13.09C18.81 13.06 18.77 13.03 18.73 13C18.71 12.99 18.69 12.97 18.68 12.96C18.67 12.95 18.65 12.94 18.64 12.93C18.66 12.95 18.66 12.94 18.64 12.93C18.48 12.8 18.32 12.66 18.17 12.51C17.89 12.22 17.61 11.93 17.35 11.63C17.24 11.5 17.14 11.38 17.04 11.25C17.03 11.24 17.02 11.22 17 11.21C17 11.2 17 11.2 16.99 11.19C16.97 11.17 17.02 11.23 17 11.2C16.98 11.17 16.95 11.14 16.93 11.11C16.89 11.06 16.85 11 16.81 10.95C16.64 10.7 16.49 10.45 16.35 10.19C16.3 10.09 16.18 10.06 16.07 10.08C15.93 10.11 15.81 10.19 15.7 10.27C15.49 10.44 15.38 10.71 15.38 10.98C15.37 11.2 15.43 11.43 15.49 11.65C15.55 11.86 15.63 12.08 15.71 12.28C15.76 12.41 15.82 12.54 15.87 12.67L15.91 12.37C15.63 12.69 15.54 13.15 15.61 13.56C15.66 13.89 15.84 14.2 16.04 14.46C16.21 14.69 16.41 14.88 16.64 15.05C16.73 15.12 16.83 15.19 16.94 15.23L16.85 14.9C16.71 15.19 16.68 15.54 16.82 15.83C16.91 16.03 17.09 16.18 17.27 16.29C17.43 16.38 17.6 16.46 17.77 16.52C17.86 16.55 17.95 16.58 18.04 16.6L17.87 16.3C17.81 16.6 17.85 16.92 17.98 17.2C18.09 17.44 18.3 17.6 18.53 17.72C18.76 17.85 19.01 17.94 19.27 18C19.41 18.04 19.56 18.07 19.71 18.09L19.5 17.96C19.65 18.2 19.89 18.4 20.16 18.5C20.46 18.62 20.83 18.57 21.07 18.35L20.65 18.18C20.65 18.22 20.67 18.09 20.66 18.14C20.65 18.17 20.65 18.2 20.64 18.23C20.63 18.34 20.61 18.44 20.58 18.54C20.55 18.68 20.51 18.81 20.47 18.95C20.44 19.03 20.42 19.1 20.39 19.18C20.38 19.2 20.37 19.22 20.37 19.24C20.36 19.24 20.36 19.25 20.36 19.26C20.34 19.3 20.36 19.24 20.36 19.24C20.34 19.28 20.33 19.33 20.31 19.37C20.27 19.44 20.23 19.51 20.19 19.58C20.17 19.62 20.15 19.65 20.13 19.69C20.11 19.7 20.1 19.72 20.09 19.74C20.08 19.75 20.04 19.8 20.07 19.77C20.09 19.74 20.05 19.79 20.04 19.8C20.03 19.81 20.02 19.83 20.01 19.84C19.98 19.87 19.95 19.9 19.92 19.93C19.89 19.96 19.86 19.99 19.83 20.01C19.81 20.03 19.79 20.04 19.77 20.06C19.75 20.08 19.81 20.03 19.78 20.05C19.77 20.06 19.76 20.07 19.74 20.08C19.57 20.2 19.39 20.32 19.2 20.42C19.11 20.47 19.02 20.52 18.92 20.56C18.9 20.57 18.87 20.58 18.85 20.59C18.83 20.6 18.76 20.63 18.82 20.61C18.76 20.63 18.71 20.65 18.66 20.67C18.45 20.75 18.22 20.81 18 20.85C17.99 20.85 17.97 20.85 17.96 20.85C17.99 20.85 18 20.85 17.97 20.85C17.94 20.86 17.92 20.86 17.89 20.86C17.84 20.86 17.79 20.87 17.74 20.87C17.69 20.87 17.64 20.87 17.59 20.86C17.56 20.86 17.54 20.85 17.52 20.86C17.52 20.86 17.58 20.87 17.54 20.86C17.52 20.86 17.51 20.85 17.49 20.85C17.39 20.83 17.3 20.86 17.23 20.94C17.17 21.02 17.16 21.13 17.21 21.21C17.3 21.35 17.4 21.49 17.51 21.61C17.71 21.82 17.96 22.01 18.25 22.06C18.47 22.09 18.68 22.05 18.86 21.93L18.49 21.72C18.49 21.9 18.54 22.09 18.62 22.25C18.79 22.58 19.16 22.73 19.51 22.69C19.65 22.68 19.78 22.65 19.91 22.59L19.54 22.38C19.54 22.47 19.57 22.57 19.61 22.64C19.71 22.81 19.88 22.89 20.07 22.9C20.26 22.92 20.44 22.87 20.59 22.76C20.73 22.66 20.85 22.52 20.96 22.38C21.06 22.24 21.15 22.1 21.24 21.96C21.28 21.89 21.33 21.82 21.38 21.76C21.4 21.73 21.42 21.7 21.44 21.67C21.45 21.65 21.46 21.64 21.47 21.62C21.5 21.57 21.44 21.66 21.47 21.62C21.51 21.57 21.55 21.53 21.59 21.49C21.63 21.46 21.55 21.52 21.58 21.5C21.59 21.5 21.6 21.49 21.61 21.48C21.61 21.48 21.63 21.47 21.63 21.47C21.58 21.51 21.58 21.49 21.61 21.48C21.71 21.44 21.81 21.42 21.9 21.39C22.62 21.2 23.32 20.91 23.83 20.34C24.42 19.68 24.67 18.81 24.75 17.94C24.76 17.79 24.76 17.63 24.77 17.48C24.77 17.41 24.77 17.35 24.77 17.29C24.77 17.26 24.77 17.24 24.77 17.22C24.77 17.21 24.78 17.13 24.77 17.18C24.77 17.22 24.78 17.14 24.78 17.13C24.79 17.11 24.79 17.08 24.8 17.06C24.81 17.03 24.81 17.01 24.82 16.99C24.82 16.98 24.83 16.97 24.83 16.96C24.85 16.92 24.83 16.96 24.83 16.97C24.85 16.93 24.87 16.88 24.9 16.83C24.91 16.81 24.92 16.79 24.93 16.78C24.94 16.77 24.95 16.76 24.95 16.75C24.97 16.73 24.96 16.72 24.95 16.76C24.96 16.72 25.01 16.68 25.04 16.65C25.06 16.64 25.07 16.62 25.09 16.61C25.1 16.6 25.1 16.59 25.11 16.59C25.15 16.56 25.11 16.59 25.1 16.59C25.15 16.58 25.19 16.54 25.23 16.51C25.25 16.5 25.27 16.49 25.29 16.48C25.31 16.47 25.31 16.46 25.28 16.49C25.28 16.48 25.3 16.48 25.31 16.47C25.36 16.46 25.4 16.44 25.45 16.43C25.46 16.43 25.47 16.43 25.48 16.43C25.52 16.42 25.43 16.43 25.47 16.43C25.49 16.43 25.51 16.42 25.54 16.42C25.59 16.42 25.64 16.42 25.69 16.43C25.78 16.44 25.88 16.36 25.91 16.28C25.95 16.19 25.93 16.08 25.86 16.01C25.73 15.87 25.6 15.73 25.47 15.59C25.39 15.5 25.21 15.5 25.13 15.59C25.03 15.69 25.03 15.84 25.13 15.94C25.26 16.08 25.39 16.22 25.52 16.36C25.57 16.22 25.63 16.08 25.69 15.94C25.25 15.89 24.83 16.11 24.57 16.45C24.44 16.61 24.35 16.8 24.31 17.01C24.27 17.18 24.28 17.34 24.27 17.51C24.27 17.67 24.26 17.82 24.25 17.97C24.25 18.02 24.24 18.06 24.24 18.1C24.24 18.12 24.23 18.14 24.23 18.17C24.23 18.18 24.23 18.19 24.23 18.2C24.22 18.25 24.23 18.16 24.23 18.19C24.21 18.28 24.2 18.38 24.18 18.47C24.14 18.67 24.09 18.86 24.02 19.05C24.01 19.1 23.99 19.14 23.97 19.19C23.97 19.2 23.96 19.21 23.96 19.23C23.94 19.26 23.97 19.19 23.96 19.22C23.95 19.25 23.94 19.28 23.92 19.3C23.88 19.4 23.83 19.49 23.78 19.58C23.72 19.68 23.66 19.77 23.59 19.86C23.59 19.87 23.56 19.9 23.58 19.88C23.6 19.85 23.57 19.89 23.57 19.89C23.55 19.91 23.53 19.93 23.51 19.95C23.48 20 23.44 20.04 23.4 20.08C23.33 20.15 23.25 20.22 23.18 20.28C23.17 20.29 23.16 20.3 23.15 20.31C23.11 20.34 23.15 20.31 23.15 20.3C23.15 20.32 23.11 20.34 23.09 20.35C23.05 20.37 23.01 20.4 22.97 20.43C22.82 20.53 22.65 20.61 22.49 20.69C22.45 20.7 22.5 20.68 22.5 20.68C22.5 20.68 22.48 20.69 22.47 20.69C22.45 20.7 22.43 20.71 22.41 20.71C22.37 20.73 22.34 20.74 22.29 20.76C22.22 20.79 22.15 20.81 22.07 20.83C21.85 20.9 21.6 20.94 21.39 21.04C21.27 21.1 21.18 21.19 21.11 21.29C21.01 21.42 20.91 21.56 20.82 21.7C20.73 21.84 20.64 21.98 20.54 22.11C20.54 22.12 20.53 22.13 20.53 22.14C20.53 22.13 20.56 22.09 20.54 22.12C20.53 22.14 20.51 22.15 20.5 22.16C20.48 22.19 20.45 22.22 20.43 22.25C20.41 22.27 20.38 22.3 20.36 22.32C20.34 22.33 20.33 22.34 20.32 22.35C20.32 22.35 20.37 22.31 20.34 22.33C20.33 22.34 20.32 22.34 20.32 22.35C20.29 22.37 20.26 22.38 20.24 22.39C20.21 22.41 20.3 22.37 20.27 22.38C20.26 22.38 20.26 22.39 20.25 22.39C20.24 22.39 20.22 22.4 20.21 22.4C20.2 22.4 20.17 22.41 20.17 22.41C20.17 22.41 20.23 22.4 20.18 22.4C20.15 22.41 20.13 22.41 20.11 22.41C20.1 22.41 20.04 22.4 20.08 22.41C20.13 22.42 20.07 22.4 20.05 22.4C20 22.39 20.09 22.42 20.06 22.41C20.05 22.4 20.04 22.39 20.03 22.39C20 22.37 20.07 22.43 20.04 22.39C20.04 22.39 20.03 22.39 20.03 22.38C20.01 22.36 20.06 22.43 20.05 22.41C20.04 22.4 20.01 22.33 20.03 22.38C20.05 22.43 20.03 22.38 20.03 22.36C20.03 22.36 20.03 22.34 20.03 22.34C20.02 22.34 20.04 22.41 20.03 22.4C20.03 22.4 20.03 22.39 20.03 22.39C20.03 22.39 20.03 22.38 20.03 22.38C20.03 22.29 19.98 22.21 19.91 22.17C19.83 22.12 19.74 22.13 19.66 22.17C19.78 22.11 19.66 22.16 19.62 22.17C19.59 22.18 19.56 22.19 19.53 22.2C19.52 22.2 19.51 22.2 19.49 22.2C19.53 22.2 19.54 22.2 19.51 22.2C19.49 22.2 19.47 22.2 19.45 22.2C19.41 22.2 19.36 22.2 19.31 22.2C19.37 22.2 19.28 22.19 19.27 22.19C19.25 22.18 19.23 22.17 19.21 22.17C19.18 22.16 19.18 22.16 19.2 22.17C19.19 22.16 19.19 22.16 19.18 22.15C19.16 22.14 19.15 22.14 19.14 22.13C19.1 22.11 19.18 22.17 19.13 22.12C19.12 22.11 19.11 22.1 19.1 22.08C19.09 22.07 19.08 22.06 19.07 22.04C19.06 22.03 19.06 22.02 19.05 22C19.05 21.99 19.02 21.94 19.04 21.98C19.06 22.02 19.04 21.97 19.03 21.96C19.03 21.95 19.02 21.93 19.02 21.92C19.01 21.89 19.01 21.87 19 21.84C19 21.82 18.98 21.74 18.99 21.79C19 21.85 18.99 21.78 18.99 21.77C18.99 21.75 18.99 21.73 18.99 21.71C18.99 21.53 18.78 21.4 18.62 21.5C18.59 21.52 18.54 21.53 18.52 21.55C18.52 21.55 18.57 21.53 18.55 21.54C18.54 21.54 18.53 21.55 18.52 21.55C18.51 21.56 18.49 21.56 18.47 21.56C18.46 21.57 18.44 21.57 18.43 21.57C18.4 21.58 18.49 21.57 18.45 21.57C18.45 21.57 18.44 21.57 18.44 21.57C18.4 21.57 18.37 21.57 18.34 21.57C18.32 21.57 18.38 21.57 18.37 21.57C18.37 21.57 18.36 21.57 18.35 21.57C18.34 21.57 18.32 21.56 18.31 21.56C18.28 21.55 18.25 21.54 18.22 21.53C18.19 21.52 18.27 21.56 18.25 21.54C18.24 21.54 18.23 21.54 18.23 21.54C18.22 21.53 18.2 21.52 18.19 21.52C18.16 21.5 18.13 21.48 18.11 21.47C18.08 21.45 18.06 21.43 18.04 21.42C18.01 21.4 18.08 21.45 18.06 21.43C18.05 21.43 18.05 21.42 18.04 21.42C18.03 21.41 18.02 21.4 18 21.39C17.96 21.35 17.92 21.31 17.88 21.27C17.84 21.23 17.8 21.18 17.77 21.14C17.76 21.13 17.75 21.12 17.75 21.11C17.72 21.08 17.79 21.17 17.76 21.13C17.75 21.11 17.73 21.1 17.72 21.08C17.69 21.04 17.67 21 17.64 20.96L17.36 21.32C17.78 21.4 18.22 21.33 18.62 21.2C19.06 21.06 19.48 20.85 19.86 20.59C20.03 20.48 20.2 20.35 20.34 20.2C20.47 20.06 20.58 19.91 20.67 19.74C20.83 19.44 20.95 19.11 21.03 18.77C21.08 18.57 21.12 18.37 21.15 18.17C21.16 18.07 21.08 17.98 21 17.94C20.9 17.9 20.8 17.93 20.73 17.99C20.7 18.02 20.76 17.97 20.76 17.97C20.76 17.97 20.72 18 20.71 18C20.69 18.01 20.67 18.02 20.65 18.04C20.62 18.05 20.7 18.02 20.67 18.03C20.66 18.03 20.66 18.03 20.65 18.03C20.63 18.04 20.61 18.05 20.6 18.05C20.59 18.05 20.53 18.06 20.53 18.06C20.53 18.06 20.59 18.06 20.56 18.06C20.55 18.06 20.54 18.06 20.53 18.06C20.51 18.06 20.48 18.06 20.46 18.06C20.45 18.06 20.44 18.06 20.43 18.06C20.39 18.06 20.49 18.07 20.42 18.06C20.41 18.05 20.29 18.03 20.29 18.02C20.29 18.02 20.33 18.04 20.31 18.02C20.3 18.02 20.29 18.02 20.28 18.01C20.26 18 20.23 17.99 20.21 17.97C20.19 17.96 20.18 17.95 20.16 17.94C20.15 17.94 20.1 17.9 20.13 17.92C20.16 17.94 20.11 17.91 20.11 17.9C20.09 17.89 20.08 17.87 20.06 17.86C20.02 17.82 19.98 17.78 19.94 17.73C19.9 17.69 19.98 17.78 19.94 17.73C19.94 17.73 19.93 17.72 19.93 17.71C19.87 17.63 19.81 17.6 19.71 17.59C19.7 17.59 19.67 17.58 19.73 17.59C19.79 17.6 19.73 17.59 19.72 17.59C19.69 17.58 19.67 17.58 19.65 17.58C19.59 17.57 19.53 17.55 19.47 17.54C19.31 17.5 19.15 17.45 19 17.39C18.99 17.39 18.98 17.39 18.97 17.38C18.94 17.37 19.01 17.4 18.97 17.38C18.95 17.37 18.93 17.37 18.91 17.36C18.86 17.33 18.82 17.31 18.77 17.29C18.73 17.26 18.69 17.24 18.65 17.21C18.63 17.2 18.61 17.19 18.59 17.18C18.57 17.16 18.59 17.16 18.6 17.18C18.6 17.18 18.58 17.17 18.57 17.16C18.55 17.14 18.52 17.11 18.49 17.08C18.49 17.08 18.47 17.06 18.47 17.06C18.47 17.06 18.5 17.1 18.49 17.08C18.48 17.06 18.46 17.04 18.45 17.03C18.44 17 18.42 16.97 18.4 16.94C18.38 16.88 18.42 16.98 18.4 16.94C18.4 16.92 18.39 16.9 18.38 16.88C18.37 16.85 18.36 16.81 18.35 16.77C18.35 16.76 18.35 16.74 18.34 16.72C18.33 16.67 18.35 16.78 18.34 16.72C18.34 16.66 18.33 16.6 18.34 16.54C18.34 16.5 18.34 16.46 18.35 16.42C18.35 16.39 18.33 16.49 18.34 16.45C18.34 16.45 18.34 16.44 18.34 16.44C18.34 16.43 18.34 16.43 18.35 16.42C18.37 16.3 18.31 16.15 18.17 16.12C18.11 16.11 18.05 16.09 17.99 16.07C17.93 16.05 17.86 16.02 17.8 16C17.76 15.98 17.85 16.02 17.79 16C17.78 15.99 17.76 15.98 17.74 15.97C17.71 15.96 17.67 15.94 17.64 15.92C17.56 15.88 17.49 15.84 17.42 15.79C17.37 15.75 17.45 15.81 17.42 15.78C17.4 15.77 17.39 15.76 17.37 15.75C17.36 15.73 17.34 15.72 17.33 15.71C17.32 15.7 17.32 15.69 17.31 15.68C17.31 15.68 17.27 15.63 17.29 15.66C17.31 15.69 17.29 15.66 17.29 15.66C17.28 15.65 17.28 15.64 17.27 15.63C17.26 15.62 17.24 15.56 17.25 15.59C17.27 15.62 17.24 15.57 17.24 15.56C17.23 15.54 17.23 15.51 17.22 15.49C17.22 15.49 17.22 15.46 17.22 15.46C17.22 15.46 17.22 15.52 17.22 15.48C17.22 15.46 17.22 15.44 17.22 15.42C17.22 15.39 17.23 15.35 17.23 15.31C17.23 15.37 17.22 15.36 17.22 15.34C17.23 15.33 17.23 15.31 17.23 15.3C17.23 15.29 17.24 15.27 17.24 15.25C17.25 15.22 17.26 15.19 17.27 15.16C17.27 15.15 17.28 15.13 17.29 15.11C17.26 15.2 17.27 15.16 17.28 15.14C17.33 15.03 17.32 14.86 17.19 14.8C17.11 14.77 17.04 14.72 16.97 14.68C16.94 14.65 16.9 14.63 16.87 14.6C16.85 14.59 16.82 14.56 16.88 14.61C16.87 14.6 16.86 14.6 16.85 14.59C16.83 14.57 16.8 14.55 16.78 14.53C16.69 14.46 16.61 14.37 16.53 14.28C16.51 14.26 16.49 14.23 16.46 14.2C16.46 14.19 16.45 14.18 16.44 14.17C16.47 14.23 16.44 14.17 16.43 14.16C16.38 14.1 16.34 14.03 16.3 13.97C16.26 13.9 16.22 13.84 16.19 13.77C16.18 13.75 16.17 13.73 16.17 13.72C16.19 13.76 16.16 13.7 16.16 13.69C16.14 13.65 16.13 13.61 16.12 13.57C16.11 13.54 16.1 13.5 16.09 13.46C16.09 13.45 16.09 13.42 16.08 13.42L16.09 13.45C16.09 13.44 16.08 13.43 16.08 13.41C16.08 13.35 16.08 13.28 16.08 13.21C16.08 13.2 16.08 13.19 16.08 13.18C16.09 13.15 16.1 13.13 16.08 13.18C16.09 13.16 16.09 13.13 16.1 13.1C16.11 13.05 16.12 13 16.14 12.95C16.14 12.94 16.15 12.92 16.15 12.91C16.17 12.86 16.14 12.94 16.15 12.92C16.16 12.9 16.17 12.88 16.18 12.86C16.2 12.82 16.22 12.79 16.24 12.76C16.25 12.74 16.27 12.71 16.28 12.69C16.3 12.67 16.23 12.75 16.26 12.72C16.26 12.72 16.26 12.72 16.26 12.72C16.34 12.62 16.35 12.52 16.3 12.42C16.29 12.39 16.28 12.37 16.27 12.35C16.27 12.34 16.26 12.33 16.26 12.31C16.25 12.3 16.23 12.25 16.25 12.3C16.27 12.35 16.24 12.28 16.24 12.27C16.23 12.25 16.22 12.23 16.21 12.21C16.14 12.03 16.07 11.84 16.01 11.65C15.97 11.54 15.94 11.43 15.92 11.32C15.91 11.28 15.9 11.23 15.89 11.18C15.89 11.17 15.88 11.15 15.88 11.14C15.88 11.13 15.87 11.09 15.88 11.13C15.89 11.18 15.88 11.13 15.88 11.13C15.88 11.11 15.88 11.1 15.87 11.08C15.87 11.04 15.87 11 15.87 10.96C15.87 10.95 15.88 10.9 15.88 10.9L15.87 10.93C15.87 10.92 15.88 10.9 15.88 10.89C15.88 10.88 15.89 10.86 15.89 10.84C15.9 10.82 15.92 10.79 15.91 10.77L15.9 10.8C15.91 10.79 15.91 10.78 15.91 10.78C15.92 10.76 15.93 10.75 15.94 10.74C15.95 10.72 15.96 10.7 15.97 10.68C15.94 10.74 15.95 10.71 15.96 10.7C15.97 10.69 15.98 10.68 15.99 10.67C16.01 10.65 16.03 10.63 16.04 10.62C16.08 10.59 15.99 10.65 16.03 10.63C16.04 10.62 16.05 10.62 16.06 10.61C16.09 10.59 16.12 10.58 16.15 10.56C16.19 10.54 16.09 10.58 16.12 10.57C16.13 10.57 16.13 10.57 16.14 10.56C16.15 10.56 16.16 10.56 16.17 10.55C16.18 10.55 16.19 10.55 16.2 10.55L15.92 10.43C16.2 10.94 16.53 11.42 16.91 11.86C17.16 12.16 17.43 12.45 17.71 12.73C18.01 13.05 18.34 13.33 18.71 13.58C19.08 13.82 19.51 14.04 19.94 14.23C20.04 14.27 20.16 14.28 20.24 14.19C20.31 14.11 20.33 13.99 20.27 13.89C20.24 13.84 20.2 13.78 20.17 13.72C20.16 13.69 20.15 13.66 20.13 13.64C20.13 13.62 20.12 13.61 20.11 13.6C20.1 13.57 20.13 13.63 20.11 13.58C20.07 13.48 20.04 13.37 20.02 13.26C20.01 13.25 20.01 13.23 20.01 13.22C20.01 13.21 20 13.17 20.01 13.21C20.01 13.25 20 13.17 20 13.16C20 13.11 20 13.06 20 13.01C20 12.97 20 12.93 20 12.89C20.01 12.88 20.01 12.87 20.01 12.86C20.01 12.83 20 12.91 20 12.88C20.01 12.86 20.01 12.83 20.02 12.81C20.03 12.74 20.05 12.66 20.07 12.59C20.08 12.58 20.08 12.56 20.09 12.55C20.09 12.54 20.12 12.49 20.1 12.53C20.08 12.58 20.1 12.52 20.11 12.51C20.11 12.5 20.12 12.48 20.13 12.47C20.16 12.4 20.2 12.34 20.25 12.27C20.26 12.25 20.2 12.34 20.22 12.3C20.28 12.23 20.31 12.16 20.29 12.06C20.26 11.94 20.23 11.82 20.21 11.7C20.2 11.67 20.2 11.65 20.2 11.62C20.19 11.61 20.18 11.58 20.2 11.63C20.19 11.62 20.19 11.6 20.19 11.59C20.19 11.54 20.18 11.48 20.18 11.43C20.17 11.33 20.17 11.24 20.18 11.14C20.18 11.1 20.18 11.06 20.19 11.02C20.19 11.01 20.19 11 20.19 10.99C20.19 11.06 20.19 11.03 20.19 11.02C20.19 10.99 20.2 10.97 20.2 10.95C20.21 10.88 20.23 10.81 20.25 10.74C20.26 10.71 20.27 10.68 20.28 10.65C20.29 10.64 20.29 10.63 20.3 10.61C20.31 10.58 20.28 10.64 20.28 10.64C20.29 10.63 20.29 10.62 20.3 10.61C20.32 10.57 20.34 10.52 20.37 10.47C20.4 10.43 20.42 10.39 20.45 10.35C20.46 10.33 20.41 10.41 20.44 10.37C20.45 10.36 20.45 10.35 20.46 10.35C20.47 10.33 20.48 10.32 20.49 10.31C20.51 10.29 20.52 10.27 20.54 10.26C20.58 10.22 20.54 10.26 20.51 10.28L20.15 10.13C20.21 10.43 20.29 10.72 20.37 11.01C20.44 11.3 20.52 11.56 20.61 11.84C20.7 12.13 20.8 12.42 20.94 12.69C21.16 13.11 21.5 13.45 21.88 13.73C22.04 13.85 22.21 13.96 22.38 14.07C22.42 14.1 22.46 14.13 22.5 14.16C22.52 14.17 22.54 14.19 22.56 14.2C22.57 14.21 22.58 14.21 22.59 14.22C22.6 14.23 22.61 14.24 22.62 14.25C22.6 14.23 22.6 14.23 22.61 14.24C22.66 14.28 22.71 14.32 22.75 14.36C22.79 14.4 22.84 14.45 22.87 14.5C22.87 14.49 22.84 14.45 22.86 14.49C22.87 14.5 22.88 14.51 22.89 14.53C22.91 14.55 22.93 14.58 22.94 14.61C22.97 14.65 23 14.7 23.02 14.75C23.03 14.76 23.06 14.85 23.03 14.77C23.04 14.79 23.05 14.81 23.05 14.83C23.07 14.87 23.08 14.91 23.09 14.95C23.11 15.02 23.12 15.08 23.13 15.14C23.14 15.17 23.13 15.06 23.13 15.11C23.13 15.12 23.13 15.13 23.13 15.13C23.13 15.14 23.13 15.15 23.13 15.15C23.14 15.37 23.4 15.48 23.55 15.33C23.6 15.28 23.65 15.24 23.7 15.2C23.71 15.19 23.72 15.18 23.73 15.18C23.72 15.18 23.69 15.2 23.73 15.18C23.76 15.16 23.78 15.14 23.81 15.12C23.86 15.09 23.91 15.06 23.96 15.03C23.97 15.03 24.06 14.99 24 15.01C24.03 15 24.05 14.99 24.08 14.98C24.13 14.97 24.19 14.95 24.24 14.94C24.18 14.95 24.27 14.94 24.28 14.94C24.31 14.94 24.34 14.94 24.37 14.95C24.37 14.95 24.43 14.95 24.39 14.95C24.36 14.94 24.4 14.95 24.41 14.95C24.44 14.96 24.47 14.97 24.5 14.97C24.53 14.98 24.56 14.99 24.58 15C24.54 14.98 24.57 15 24.58 15C24.6 15.01 24.62 15.02 24.63 15.03C24.68 15.05 24.72 15.08 24.77 15.11C24.78 15.12 24.79 15.12 24.8 15.13C24.83 15.15 24.8 15.12 24.79 15.12C24.8 15.12 24.84 15.17 24.85 15.18C24.88 15.2 24.91 15.23 24.93 15.26C24.96 15.29 24.92 15.25 24.92 15.24C24.92 15.25 24.93 15.26 24.94 15.27C24.95 15.29 24.96 15.31 24.97 15.33C24.99 15.35 25 15.4 25.02 15.42C25.02 15.42 25 15.36 25.01 15.39C25.01 15.4 25.02 15.4 25.02 15.41C25.02 15.43 25.03 15.45 25.03 15.46C25.04 15.49 25.05 15.52 25.06 15.55C25.06 15.56 25.06 15.57 25.06 15.59C25.06 15.59 25.05 15.51 25.06 15.55C25.06 15.56 25.06 15.57 25.06 15.57C25.06 15.62 25.06 15.66 25.06 15.71C25.06 15.71 25.06 15.72 25.06 15.73C25.06 15.77 25.06 15.66 25.06 15.68C25.06 15.69 25.06 15.69 25.06 15.7C25.04 15.82 25.1 15.97 25.23 16C25.36 16.03 25.51 15.96 25.54 15.83L25.53 15.83Z" fill="#FFFFFF" fill-opacity="1.000000" fill-rule="nonzero"/>
</svg>
