<svg width="82.000000" height="83.000000" viewBox="0 0 82 83" fill="none" xmlns="http://www.w3.org/2000/svg" xmlns:xlink="http://www.w3.org/1999/xlink">
	<desc>
			Created with Pixso.
	</desc>
	<defs/>
	<path id="Vector" d="M37.4 82.2C28.33 74.09 19.21 65.9 12.07 56.05C4.92 46.2 -0.15 34.42 0 22.27C0.09 15.33 2.21 7.95 7.63 3.61C14.46 -1.84 24.92 -0.76 31.97 4.4C39 9.56 43.05 17.92 45.15 26.38C47.04 21.01 51.5 17.14 56.72 14.89C61.94 12.65 68.29 13 72.99 16.17C79.17 20.37 81.53 28.56 80.97 36.02C80.16 46.9 74.15 56.89 66.4 64.56C58.65 72.23 46.75 76.57 37.4 82.2Z" fill="#EF5245" fill-opacity="1.000000" fill-rule="nonzero"/>
	<g opacity="0.400000">
		<path id="Vector" d="M9.76 10.37C5.62 14.51 4.25 21.13 6.38 26.58C6.94 27.98 8.01 29.47 9.5 29.38C11.4 29.26 12.07 26.87 13.03 25.21C14.37 22.82 16.99 21.48 19.5 20.37C23.7 18.53 32.41 12.53 26.2 7.52C21.63 3.84 13.41 6.73 9.76 10.37Z" fill="#FFFFFF" fill-opacity="1.000000" fill-rule="nonzero"/>
	</g>
</svg>
