<svg width="100.000000" height="88.000000" viewBox="0 0 100 88" fill="none" xmlns="http://www.w3.org/2000/svg" xmlns:xlink="http://www.w3.org/1999/xlink">
	<desc>
			Created with Pixso.
	</desc>
	<defs/>
	<path id="Vector" d="M18.24 87.94C32.45 85.92 46.77 83.9 60.2 78.92C73.63 73.94 86.33 65.75 94.11 53.72C98.57 46.87 101.32 38.27 98.83 30.43C95.72 20.63 84.78 14.83 74.51 15.29C64.24 15.76 54.8 21.31 47.18 28.21C48.84 21.72 47.02 14.98 43.39 9.38C39.77 3.78 33.28 -0.06 26.59 0C17.78 0.05 10.1 6.53 5.8 14.2C-0.53 25.4 -1.15 39.09 1.39 51.7C3.93 64.3 12.8 76.33 18.24 88L18.24 87.94Z" fill="#EF5245" fill-opacity="1.000000" fill-rule="nonzero"/>
	<g opacity="0.400000">
		<path id="Vector" d="M92.35 35.62C93.7 42.36 90.69 49.78 85.04 53.72C83.58 54.7 81.56 55.48 80.16 54.44C78.35 53.1 79.28 50.3 79.44 48.07C79.69 44.85 77.98 41.79 76.27 39.1C73.37 34.53 68.75 22.97 78.14 22.14C85.04 21.52 91.21 29.76 92.35 35.67L92.35 35.62Z" fill="#FFFFFF" fill-opacity="1.000000" fill-rule="nonzero"/>
	</g>
</svg>
